<?xml version="1.0" encoding="iso-8859-1"?>
<!-- Generator: Adobe Illustrator 19.0.0, SVG Export Plug-In . SVG Version: 6.00 Build 0)  -->
<svg version="1.1" id="Layer_1" xmlns="http://www.w3.org/2000/svg" xmlns:xlink="http://www.w3.org/1999/xlink" x="0px" y="0px"
	 viewBox="0 0 488 488" style="enable-background:new 0 0 488 488;" xml:space="preserve">
<g transform="translate(0 -540.36)">
	<g>
		<g>
			<path d="M458.75,737.96c0-36.6-22.8-69.5-57.6-84.6c1.6-6.6,2.4-13.4,2.4-19.9c0-51.3-43-93.1-95.9-93.1
				c-26.4,0-47.4,8.3-63.9,25.4c-17.3-16.1-44.1-25.4-74.1-25.4c-52.9,0-95.9,41.8-95.9,93.1c0,8,1.2,16.1,3.8,24.6
				c-29.6,16-48.3,46.5-48.3,79.8c0,18,5.4,35.4,15.2,49.7c-9.9,14.8-15.2,32.1-15.2,49.4c0,32.2,18.1,62.5,46.7,79.1
				c-1.6,7-2.3,13.4-2.3,19.2c0,51.3,43,93.1,95.9,93.1c30,0,56.8-9.3,74.1-25.4c16.5,17.1,37.5,25.4,63.9,25.4l0,0
				c52.9,0,95.9-41.8,96-93c0-5.1-0.4-9.9-1.2-14.4c34.1-15,56.4-47.6,56.4-83.9c0-17.3-5.4-34.6-15.2-49.4
				C453.45,773.36,458.75,755.96,458.75,737.96z M423.25,793.56c10,12.5,15.5,27.9,15.5,43.3c0,30.7-20.6,58.1-51.4,68.3
				c-2.5,0.8-4.6,2.6-5.8,5s-1.3,5.2-0.5,7.7c1.7,5.2,2.5,10.7,2.5,17.4c0,40.3-34.1,73.1-75.9,73.1c-24.7,0-41.9-8.2-55.7-26.5
				c-1.9-2.5-4.9-4-8-4h0c-3.1,0-6.1,1.5-7.9,3.9c-14.7,19.5-44,26.5-66.4,26.5c-41.9,0-75.9-32.8-75.9-73.1c0-6,1.2-13.3,3.5-21.7
				c1.3-4.7-1-9.6-5.4-11.7c-25.9-12.2-42.6-37.7-42.6-64.9c0-15.4,5.5-30.7,15.5-43.3c2.9-3.7,2.9-9-0.2-12.6
				c-9.9-11.7-15.3-27.1-15.3-43.1c0-28.4,17.5-54.1,44.5-65.5c4.9-2.1,7.4-7.8,5.4-12.8c-3.7-9.5-5.5-18-5.5-26.1
				c0-40.3,34.1-73.1,75.9-73.1c22.4,0,51.7,7,66.4,26.5c1.9,2.5,4.8,4,8,4s6.1-1.5,8-4c13.9-18.3,31-26.5,55.7-26.5
				c41.9,0,75.9,32.8,75.9,73.1c0,7.5-1.4,15.5-4,22.5c-0.9,2.5-0.8,5.4,0.4,7.8c1.2,2.4,3.3,4.3,5.9,5.1c31.6,10.3,52.9,38,52.9,69
				c0,16-5.4,31.3-15.3,43.1C420.35,784.56,420.25,789.86,423.25,793.56z"/>
			<path d="M294.25,816.763c-3.7-23.3-24.5-41.6-48.3-42.7c-0.1,0-0.1,0-0.2,0c-0.1,0-0.1,0-0.2,0c-0.1,0-0.3,0-0.4,0
				c-0.1,0-0.2,0-0.4,0c-15.2,0.6-28.3-9.8-31.2-24.7c-2.9-15.1,5.2-29.2,19.6-34.4h0.1c3.3-1.2,6.7-1.8,10-1.9c0.1,0,0.2,0,0.3,0
				c0.2,0,0.3,0,0.5,0c10.8,0.1,21.3,5.9,26.9,15.7c2.7,4.8,8.8,6.5,13.6,3.8c4.8-2.7,6.5-8.8,3.8-13.6c-7.5-13.2-20.5-22-34.7-24.8
				v-41.3c0-5.5-4.5-10-10-10s-10,4.5-10,10v41.3c-2.4,0.5-4.9,1.2-7.2,2.1c-23.6,8.5-37.2,32.4-32.5,57c4.6,24,25.3,40.9,49.6,40.9
				c0.5,0,0.9,0,1.4,0c14.5,0.7,27.2,11.8,29.4,25.8c2.3,14.6-6,28.6-20.2,34c-14.5,4.5-30.5-1.3-38-13.9c-2.8-4.7-9-6.3-13.7-3.5
				c-4.7,2.8-6.3,9-3.5,13.7c7.7,13,20.4,21.5,34.6,24.3v41.5c0,5.5,4.5,10,10,10s10-4.5,10-10v-41.4c2.3-0.4,4.6-1,6.8-1.7
				c0.2,0,0.3-0.1,0.5-0.2C284.35,864.062,297.95,841.062,294.25,816.763L294.25,816.763z"/>
		</g>
	</g>
</g>
<g>
</g>
<g>
</g>
<g>
</g>
<g>
</g>
<g>
</g>
<g>
</g>
<g>
</g>
<g>
</g>
<g>
</g>
<g>
</g>
<g>
</g>
<g>
</g>
<g>
</g>
<g>
</g>
<g>
</g>
</svg>
