<svg version="1.1" id="Uploaded to svgrepo.com" xmlns="http://www.w3.org/2000/svg" xmlns:xlink="http://www.w3.org/1999/xlink" x="0px" y="0px"
	 width="32px" height="32px" viewBox="0 0 32 32" style="enable-background:new 0 0 32 32;" xml:space="preserve">
<style type="text/css">
	.open_een{fill:white;}
</style>
<g>
	<g>
		<path class="open_een" d="M16,30c-0.148,0-0.289-0.065-0.384-0.18l-2.5-3C13.041,26.73,13,26.617,13,26.5v-18
			C13,7.673,13.673,7,14.5,7h3C17.775,7,18,6.775,18,6.5V3.676C18,3.424,17.935,3,17.5,3h-3C14.065,3,14,3.424,14,3.676V4.5
			C14,4.776,13.776,5,13.5,5S13,4.776,13,4.5V3.676C13,2.689,13.617,2,14.5,2h3C18.383,2,19,2.689,19,3.676V6.5
			C19,7.327,18.327,8,17.5,8h-3C14.225,8,14,8.225,14,8.5v17.819l2,2.399l2-2.399V10.5c0-0.276,0.224-0.5,0.5-0.5s0.5,0.224,0.5,0.5
			v16c0,0.117-0.041,0.23-0.116,0.32l-2.5,3C16.289,29.935,16.148,30,16,30z"/>
	</g>
	<g>
		<path class="open_een" d="M16,30c-0.148,0-0.289-0.065-0.384-0.18l-2.5-3C13.041,26.73,13,26.617,13,26.5v-18
			C13,7.673,13.673,7,14.5,7h3C17.775,7,18,6.775,18,6.5V3.676C18,3.424,17.935,3,17.5,3h-3C14.065,3,14,3.424,14,3.676V4.5
			C14,4.776,13.776,5,13.5,5S13,4.776,13,4.5V3.676C13,2.689,13.617,2,14.5,2h3C18.383,2,19,2.689,19,3.676V6.5
			C19,7.327,18.327,8,17.5,8h-3C14.225,8,14,8.225,14,8.5v17.819l2,2.399l2-2.399V10.5c0-0.276,0.224-0.5,0.5-0.5s0.5,0.224,0.5,0.5
			v16c0,0.117-0.041,0.23-0.116,0.32l-2.5,3C16.289,29.935,16.148,30,16,30z"/>
	</g>
</g>
</svg>
