<?xml version="1.0" encoding="utf-8"?>
<!-- Uploaded to SVGRepo https://www.svgrepo.com -->
<svg version="1.1" id="Layer_1" xmlns="http://www.w3.org/2000/svg" xmlns:xlink="http://www.w3.org/1999/xlink" x="0px" y="0px"
	 width="256px" height="229px" viewBox="0 0 256 229" enable-background="new 0 0 256 229" xml:space="preserve">
<path d="M192.498,97.8c9.278,0,16.8,7.522,16.8,16.8s-7.522,16.8-16.8,16.8s-16.8-7.522-16.8-16.8S183.22,97.8,192.498,97.8z
	 M171.798,139.6c9.278,0,16.8,7.522,16.8,16.8s-7.522,16.8-16.8,16.8s-16.8-7.522-16.8-16.8S162.52,139.6,171.798,139.6z
	 M144.998,176.3h-18.9h-18.9c-11.5,0-18.7,9.5-18.7,21.4V227h12.9v-25.9c0-1.2,1-2,2-2c1.2,0,2,0.8,2,2v25.8h41.5v-25.8
	c0-1.2,1-2,2-2c1.2,0,2,1,2,2v25.8h12.9v-29.1C163.998,185.8,156.698,176.3,144.998,176.3z M149.698,97.8
	c9.278,0,16.8,7.522,16.8,16.8s-7.522,16.8-16.8,16.8s-16.8-7.522-16.8-16.8S140.42,97.8,149.698,97.8z M199.098,156.4
	c0,9.3,7.5,16.8,16.8,16.8s16.8-7.5,16.8-16.8s-7.5-16.8-16.8-16.8S199.098,147.1,199.098,156.4z M197.398,176.3
	c-11.5,0-18.7,9.5-18.7,21.4V227h12.9v-25.9c0-1.2,1-2,2-2c1.2,0,2,0.8,2,2v25.8h41.5v-25.8c0-1.2,1-2,2-2c1.2,0,2,1,2,2v25.8h12.9
	v-29.1c0.2-12.1-7.1-21.6-18.7-21.6h-18.9h-19V176.3z M39.798,139.6c9.278,0,16.8,7.522,16.8,16.8s-7.522,16.8-16.8,16.8
	s-16.8-7.522-16.8-16.8S30.52,139.6,39.798,139.6z M14.798,226.9v-25.8c0-1.2,1-2,2-2c1.2,0,2,0.8,2,2v25.8h41.5v-25.8
	c0-1.2,1-2,2-2c1.2,0,2,1,2,2v25.8h12.9v-29.1c0.2-12.1-7.1-21.6-18.7-21.6h-18.9h-18.9c-11.5,0-18.7,9.5-18.7,21.4v29.3
	L14.798,226.9L14.798,226.9z M109.298,156.4c0,9.3,7.5,16.8,16.8,16.8c9.3,0,16.8-7.5,16.8-16.8s-7.5-16.8-16.8-16.8
	S109.298,147.1,109.298,156.4z M61.298,97.8c9.278,0,16.8,7.522,16.8,16.8s-7.522,16.8-16.8,16.8s-16.8-7.522-16.8-16.8
	S52.02,97.8,61.298,97.8z M106.698,97.8c9.278,0,16.8,7.522,16.8,16.8s-7.522,16.8-16.8,16.8s-16.8-7.522-16.8-16.8
	S97.42,97.8,106.698,97.8z M84.098,139.6c9.278,0,16.8,7.522,16.8,16.8s-7.522,16.8-16.8,16.8s-16.8-7.522-16.8-16.8
	S74.82,139.6,84.098,139.6z M150.863,35.108c0,12.672-10.245,22.755-22.755,22.755c-12.51,0-22.755-10.191-22.755-22.755
	c0-12.672,10.245-22.755,22.755-22.755C140.618,12.353,150.863,22.49,150.863,35.108z M196.157,2v66H59.843V2H196.157z
	 M176.152,8.632H79.74c-1.779,6.578-6.686,11.971-13.319,13.642v25.289C73,49.343,78.069,54.735,79.74,60.235h96.52
	c1.779-5.5,6.794-11,13.426-12.672V22.275C183,20.603,177.716,15.211,176.152,8.632z"/>
</svg>
